<svg xmlns="http://www.w3.org/2000/svg" viewBox="0 0 1200 1200">

<g transform="translate(0 70)">
<g transform="translate(32.90 -88.75) scale(1.7821)" fill="#ffffff"><path d="M 307,243 L 336,243 Q 344,243 344,252 C 344,295 347,331 353,343 C 357,351 364,357 373,363 C 384,369 398,374 415,375.5 C 430,376.5 444,376 457,376 C 438,379.5 416,383.5 396,385.5 C 384,386.6 370,386 360,384.5 C 348,382.5 339,376 333,368 C 327,360 324,357 321,351 C 313,328 307,300 305,272 C 303.8,260 303,251 303,247 Q 303,243 307,243 Z" transform="rotate(0 320.75 393.5) translate(26.81 22.01) scale(0.93)"/><path d="M 307,243 L 336,243 Q 344,243 344,252 C 344,295 347,331 353,343 C 357,351 364,357 373,363 C 384,369 398,374 415,375.5 C 430,376.5 444,376 457,376 C 438,379.5 416,383.5 396,385.5 C 384,386.6 370,386 360,384.5 C 348,382.5 339,376 333,368 C 327,360 324,357 321,351 C 313,328 307,300 305,272 C 303.8,260 303,251 303,247 Q 303,243 307,243 Z" transform="rotate(90 320.75 393.5) translate(26.81 22.01) scale(0.93)"/><path d="M 307,243 L 336,243 Q 344,243 344,252 C 344,295 347,331 353,343 C 357,351 364,357 373,363 C 384,369 398,374 415,375.5 C 430,376.5 444,376 457,376 C 438,379.5 416,383.5 396,385.5 C 384,386.6 370,386 360,384.5 C 348,382.5 339,376 333,368 C 327,360 324,357 321,351 C 313,328 307,300 305,272 C 303.8,260 303,251 303,247 Q 303,243 307,243 Z" transform="rotate(180 320.75 393.5) translate(26.81 22.01) scale(0.93)"/><path d="M 307,243 L 336,243 Q 344,243 344,252 C 344,295 347,331 353,343 C 357,351 364,357 373,363 C 384,369 398,374 415,375.5 C 430,376.5 444,376 457,376 C 438,379.5 416,383.5 396,385.5 C 384,386.6 370,386 360,384.5 C 348,382.5 339,376 333,368 C 327,360 324,357 321,351 C 313,328 307,300 305,272 C 303.8,260 303,251 303,247 Q 303,243 307,243 Z" transform="rotate(270 320.75 393.5) translate(26.81 22.01) scale(0.93)"/><circle cx="244.75" cy="317.5" r="29.5"/><circle cx="244.75" cy="469.5" r="29.5"/><circle cx="396.75" cy="317.5" r="29.5"/><circle cx="396.75" cy="469.5" r="29.5"/></g>
<path transform="translate(195.59 798.13) rotate(-100.97) translate(-54.87 0) scale(0.17200 -0.17200)" d="M313 -12Q229 -12 152.0 10.5Q75 33 28 69L83 191Q128 159 189.5 138.5Q251 118 314 118Q362 118 391.5 127.5Q421 137 435.0 154.0Q449 171 449 193Q449 221 427.0 237.5Q405 254 369.0 264.5Q333 275 289.5 284.5Q246 294 202.5 308.0Q159 322 123.0 344.0Q87 366 64.5 402.0Q42 438 42 494Q42 554 74.5 603.5Q107 653 172.5 682.5Q238 712 337 712Q403 712 467.0 696.5Q531 681 580 650L530 527Q481 555 432.0 568.5Q383 582 336 582Q289 582 259.0 571.0Q229 560 216.0 542.5Q203 525 203 502Q203 475 225.0 458.5Q247 442 283.0 432.0Q319 422 362.5 412.0Q406 402 449.5 389.0Q493 376 529.0 354.0Q565 332 587.5 296.0Q610 260 610 205Q610 146 577.0 97.0Q544 48 478.5 18.0Q413 -12 313 -12Z" fill="#ffffff"/>
<path transform="translate(190.22 676.05) rotate(-84.07) translate(-67.77 0) scale(0.17200 -0.17200)" d="M394 -12Q245 -12 161.0 71.0Q77 154 77 308V700H239V314Q239 214 280.0 170.0Q321 126 395 126Q469 126 510.0 170.0Q551 214 551 314V700H711V308Q711 154 627.0 71.0Q543 -12 394 -12Z" fill="#ffffff"/>
<path transform="translate(223.86 550.03) rotate(-66.03) translate(-63.21 0) scale(0.17200 -0.17200)" d="M83 0V700H382Q528 700 609.0 632.5Q690 565 690 446Q690 368 653.0 311.5Q616 255 548.0 225.0Q480 195 386 195H173L245 266V0ZM528 0 353 254H526L703 0ZM245 248 173 324H377Q452 324 489.0 356.5Q526 389 526 446Q526 504 489.0 536.0Q452 568 377 568H173L245 645Z" fill="#ffffff"/>
<path transform="translate(292.13 443.70) rotate(-48.56) translate(-63.64 0) scale(0.17200 -0.17200)" d="M228 160 219 347 554 700H734L432 375L342 279ZM83 0V700H244V0ZM562 0 313 305 419 420 751 0Z" fill="#ffffff"/>
<path transform="translate(384.47 365.64) rotate(-31.85) translate(-57.71 0) scale(0.17200 -0.17200)" d="M83 0V700H612V570H244V130H625V0ZM232 292V418H569V292Z" fill="#ffffff"/>
<path transform="translate(494.95 317.55) rotate(-15.20) translate(-63.21 0) scale(0.17200 -0.17200)" d="M83 0V700H382Q528 700 609.0 632.5Q690 565 690 446Q690 368 653.0 311.5Q616 255 548.0 225.0Q480 195 386 195H173L245 266V0ZM528 0 353 254H526L703 0ZM245 248 173 324H377Q452 324 489.0 356.5Q526 389 526 446Q526 504 489.0 536.0Q452 568 377 568H173L245 645Z" fill="#ffffff"/>
<path transform="translate(680.36 310.07) rotate(10.58) translate(-46.53 0) scale(0.17200 -0.17200)" d="M212 -12Q141 -12 81.5 14.5Q22 41 -16 90L74 198Q103 160 135.0 140.5Q167 121 204 121Q303 121 303 237V570H57V700H464V246Q464 116 400.0 52.0Q336 -12 212 -12Z" fill="#ffffff"/>
<path transform="translate(788.44 346.12) rotate(26.32) translate(-67.77 0) scale(0.17200 -0.17200)" d="M394 -12Q245 -12 161.0 71.0Q77 154 77 308V700H239V314Q239 214 280.0 170.0Q321 126 395 126Q469 126 510.0 170.0Q551 214 551 314V700H711V308Q711 154 627.0 71.0Q543 -12 394 -12Z" fill="#ffffff"/>
<path transform="translate(897.05 423.74) rotate(44.79) translate(-66.31 0) scale(0.17200 -0.17200)" d="M421 -12Q338 -12 268.5 14.5Q199 41 147.5 90.0Q96 139 67.5 205.0Q39 271 39 350Q39 429 67.5 495.0Q96 561 148.0 610.0Q200 659 270.0 685.5Q340 712 424 712Q517 712 591.5 681.0Q666 650 717 591L613 495Q575 535 530.0 554.5Q485 574 432 574Q381 574 339.0 558.0Q297 542 266.5 512.0Q236 482 219.5 441.0Q203 400 203 350Q203 301 219.5 260.0Q236 219 266.5 188.5Q297 158 338.5 142.0Q380 126 430 126Q478 126 523.5 141.5Q569 157 612 194L704 77Q647 34 571.5 11.0Q496 -12 421 -12ZM704 77 556 98V361H704Z" fill="#ffffff"/>
<path transform="translate(970.85 522.84) rotate(61.87) translate(-57.71 0) scale(0.17200 -0.17200)" d="M83 0V700H612V570H244V130H625V0ZM232 292V418H569V292Z" fill="#ffffff"/>
<path transform="translate(1012.88 642.36) rotate(79.38) translate(-69.49 0) scale(0.17200 -0.17200)" d="M83 0V700H217L630 196H565V700H725V0H592L178 504H243V0Z" fill="#ffffff"/>
<path transform="translate(1015.17 782.20) rotate(98.74) translate(-71.04 0) scale(0.17200 -0.17200)" d="M83 0V700H401Q515 700 602.0 656.5Q689 613 738.0 535.0Q787 457 787 350Q787 244 738.0 165.5Q689 87 602.0 43.5Q515 0 401 0ZM245 133H393Q463 133 514.5 159.5Q566 186 594.5 235.0Q623 284 623 350Q623 417 594.5 465.5Q566 514 514.5 540.5Q463 567 393 567H245Z" fill="#ffffff"/>
</g>
</svg>