<svg xmlns="http://www.w3.org/2000/svg" viewBox="320 330 570 570"><g transform="translate(32.90 -88.75) scale(1.7821)" fill="#0049ac"><path d="M 307,243 L 336,243 Q 344,243 344,252 C 344,295 347,331 353,343 C 357,351 364,357 373,363 C 384,369 398,374 415,375.5 C 430,376.5 444,376 457,376 C 438,379.5 416,383.5 396,385.5 C 384,386.6 370,386 360,384.5 C 348,382.5 339,376 333,368 C 327,360 324,357 321,351 C 313,328 307,300 305,272 C 303.8,260 303,251 303,247 Q 303,243 307,243 Z" transform="rotate(0 320.75 393.5) translate(26.81 22.01) scale(0.93)"/><path d="M 307,243 L 336,243 Q 344,243 344,252 C 344,295 347,331 353,343 C 357,351 364,357 373,363 C 384,369 398,374 415,375.5 C 430,376.5 444,376 457,376 C 438,379.5 416,383.5 396,385.5 C 384,386.6 370,386 360,384.5 C 348,382.5 339,376 333,368 C 327,360 324,357 321,351 C 313,328 307,300 305,272 C 303.8,260 303,251 303,247 Q 303,243 307,243 Z" transform="rotate(90 320.75 393.5) translate(26.81 22.01) scale(0.93)"/><path d="M 307,243 L 336,243 Q 344,243 344,252 C 344,295 347,331 353,343 C 357,351 364,357 373,363 C 384,369 398,374 415,375.5 C 430,376.5 444,376 457,376 C 438,379.5 416,383.5 396,385.5 C 384,386.6 370,386 360,384.5 C 348,382.5 339,376 333,368 C 327,360 324,357 321,351 C 313,328 307,300 305,272 C 303.8,260 303,251 303,247 Q 303,243 307,243 Z" transform="rotate(180 320.75 393.5) translate(26.81 22.01) scale(0.93)"/><path d="M 307,243 L 336,243 Q 344,243 344,252 C 344,295 347,331 353,343 C 357,351 364,357 373,363 C 384,369 398,374 415,375.5 C 430,376.5 444,376 457,376 C 438,379.5 416,383.5 396,385.5 C 384,386.6 370,386 360,384.5 C 348,382.5 339,376 333,368 C 327,360 324,357 321,351 C 313,328 307,300 305,272 C 303.8,260 303,251 303,247 Q 303,243 307,243 Z" transform="rotate(270 320.75 393.5) translate(26.81 22.01) scale(0.93)"/><circle cx="244.75" cy="317.5" r="29.5"/><circle cx="244.75" cy="469.5" r="29.5"/><circle cx="396.75" cy="317.5" r="29.5"/><circle cx="396.75" cy="469.5" r="29.5"/></g></svg>